<svg width="81" height="26" viewBox="0 0 81 26" fill="none" xmlns="http://www.w3.org/2000/svg">
<path d="M80.4132 14.3482C80.4132 20.1899 71.5421 18.9692 70.9399 17.1293C70.8769 16.9378 70.5692 15.1069 71.7625 15.8928C77.1745 19.4569 81.4532 14.0789 76.2896 12.0078C74.0572 11.1122 70.1945 9.66519 71.6511 5.95717C73.1077 2.24949 79.4827 3.1768 79.6968 4.95966C80.0331 7.75585 78.1062 4.13979 74.7768 5.17732C72.8909 5.76488 72.0257 8.48734 75.4563 9.86898C77.726 10.7832 80.4132 11.4739 80.4132 14.3482ZM53.3686 10.7563V0.342137C53.3686 0.288219 53.3851 0.243027 53.4189 0.197831C53.4526 0.153032 53.5029 0.116951 53.5755 0.085631C53.6425 0.0539146 53.7432 0.0313181 53.8665 0.0178386C53.9949 0.00435908 54.1519 0 54.3533 0C54.5377 0 54.6887 0.00435908 54.8176 0.0178386C54.9405 0.0313181 55.0412 0.0539146 55.1086 0.085631C55.1811 0.116951 55.2315 0.153032 55.2652 0.197831C55.2985 0.243027 55.3155 0.288219 55.3155 0.342137V5.97818C55.4051 5.87907 55.4963 5.78193 55.5907 5.68755C56.9676 4.31067 58.8702 3.45908 60.9714 3.45908C63.0726 3.45908 64.9752 4.31067 66.3521 5.68755C67.729 7.06446 68.5806 8.96704 68.5806 11.0683C68.5806 13.1695 67.729 15.0721 66.3521 16.449C64.9752 17.8259 63.0726 18.6775 60.9714 18.6775C58.8702 18.6775 56.9676 17.8259 55.5907 16.449C54.2138 15.0721 53.3622 13.1695 53.3622 11.0683C53.3622 10.964 53.3642 10.8597 53.3686 10.7563ZM64.9502 7.08942C63.9321 6.07131 62.5251 5.44138 60.9714 5.44138C59.4177 5.44138 58.0106 6.07131 56.9925 7.08942C55.9744 8.10753 55.3445 9.51454 55.3445 11.0683C55.3445 12.622 55.9744 14.029 56.9925 15.0471C58.0106 16.0652 59.4177 16.6952 60.9714 16.6952C62.5251 16.6952 63.9321 16.0652 64.9502 15.0471C65.9683 14.029 66.5983 12.622 66.5983 11.0683C66.5983 9.51454 65.9683 8.10753 64.9502 7.08942ZM32.6204 1.35389C32.8868 1.35389 33.1294 1.45816 33.3051 1.62507C33.4827 1.79476 33.5929 2.02906 33.5929 2.28755C33.5929 2.54604 33.4827 2.78114 33.3051 2.95003C33.1294 3.11773 32.8868 3.2216 32.6204 3.2216C32.354 3.2216 32.1113 3.11773 31.9357 2.95003C31.7581 2.78114 31.6479 2.54604 31.6479 2.28755C31.6479 2.02906 31.7581 1.79476 31.9357 1.62507C32.1113 1.45816 32.354 1.35389 32.6204 1.35389ZM33.5973 20.45C33.5973 21.5074 33.5243 22.3578 33.3733 23.0068C33.2278 23.6502 32.9931 24.1929 32.6684 24.6406C32.3496 25.0881 31.9242 25.4291 31.4096 25.6587C30.8895 25.8882 30.2516 26 29.4963 26C29.2113 26 28.9651 25.9829 28.7522 25.9441C28.5397 25.9048 28.372 25.8601 28.2487 25.8208C28.1313 25.776 28.0473 25.7201 27.9969 25.6642C27.9466 25.6027 27.9133 25.5353 27.8962 25.4628C27.8796 25.3958 27.8685 25.3229 27.8629 25.2614C27.8574 25.1944 27.8574 25.1159 27.8574 25.0263C27.8574 24.8867 27.8629 24.7634 27.8796 24.6572C27.8962 24.5565 27.9244 24.4669 27.9581 24.4054C27.9914 24.3384 28.0306 24.2881 28.081 24.2544C28.1258 24.2207 28.1872 24.2041 28.2487 24.2041C28.3161 24.2041 28.4501 24.2207 28.6515 24.2488C28.8588 24.2766 29.1046 24.2881 29.4012 24.2881C29.804 24.2881 30.1509 24.2262 30.4363 24.1089C30.7218 23.986 30.9509 23.7902 31.1357 23.5102C31.3145 23.2363 31.4433 22.8728 31.5274 22.4252C31.611 21.9831 31.6502 21.323 31.6502 20.45V4.87522C31.6502 4.80822 31.6669 4.75232 31.7006 4.69602C31.7343 4.64012 31.7847 4.59532 31.8572 4.55647C31.9242 4.51722 32.0249 4.48908 32.1482 4.47243C32.2767 4.45578 32.4337 4.45022 32.6351 4.45022C32.8194 4.45022 32.9705 4.45578 33.0993 4.47243C33.2222 4.48908 33.3229 4.51722 33.3903 4.55647C33.4628 4.59532 33.5132 4.64012 33.5469 4.69602C33.5802 4.75232 33.5973 4.80822 33.5973 4.87522V20.45ZM43.4829 3.45908C45.5841 3.45908 47.4867 4.31067 48.8636 5.68755C50.2405 7.06446 51.0921 8.96704 51.0921 11.0683C51.0921 13.1695 50.2405 15.0721 48.8636 16.449C47.4867 17.8259 45.5841 18.6775 43.4829 18.6775C41.3817 18.6775 39.4791 17.8259 38.1022 16.449C36.7253 15.0721 35.8737 13.1695 35.8737 11.0683C35.8737 8.96704 36.7253 7.06446 38.1022 5.68755C39.4791 4.31067 41.3817 3.45908 43.4829 3.45908ZM47.4617 7.08942C46.4436 6.07131 45.0366 5.44138 43.4829 5.44138C41.9292 5.44138 40.5222 6.07131 39.5041 7.08942C38.4859 8.10753 37.856 9.51454 37.856 11.0683C37.856 12.622 38.4859 14.029 39.5041 15.0471C40.5222 16.0652 41.9292 16.6952 43.4829 16.6952C45.0366 16.6952 46.4436 16.0652 47.4617 15.0471C48.4798 14.029 49.1098 12.622 49.1098 11.0683C49.1098 9.51454 48.4798 8.10753 47.4617 7.08942Z" fill="#264FBC"/>
<path d="M0 19.1288C0 21.8981 2.24497 24.1431 5.01428 24.1431C7.78359 24.1431 10.0286 21.8981 10.0286 19.1288C10.0286 16.3595 7.78359 14.1145 5.01428 14.1145C2.24497 14.1145 0 16.3595 0 19.1288Z" fill="#264FBC"/>
<path d="M1.46798e-05 11.0338C1.46798e-05 11.7578 0.586936 12.3448 1.31094 12.3448H9.17648C9.90048 12.3448 10.4874 11.7578 10.4874 11.0338V3.16829C10.4874 2.44429 9.90048 1.85737 9.17648 1.85737L1.31094 1.85737C0.586936 1.85737 1.46798e-05 2.44429 1.46798e-05 3.16829L1.46798e-05 11.0338Z" fill="#5DD9C1"/>
<path d="M11.7983 22.8321C11.7983 23.5561 12.3852 24.1431 13.1092 24.1431H20.9748C21.6988 24.1431 22.2857 23.5561 22.2857 22.8321V14.9666C22.2857 14.2426 21.6988 13.6557 20.9748 13.6557H13.1092C12.3852 13.6557 11.7983 14.2426 11.7983 14.9666V22.8321Z" fill="#5DD9C1"/>
<path d="M12.2574 6.87146C12.2574 9.64077 14.5024 11.8857 17.2717 11.8857C20.041 11.8857 22.2859 9.64077 22.2859 6.87146C22.2859 4.10215 20.041 1.85718 17.2717 1.85718C14.5024 1.85718 12.2574 4.10215 12.2574 6.87146Z" fill="#264FBC"/>
</svg>
