<svg width="106" height="34" viewBox="0 0 106 34" fill="none" xmlns="http://www.w3.org/2000/svg">
<path d="M105.156 18.763C105.156 26.4022 93.555 24.8059 92.7675 22.3998C92.6851 22.1494 92.2828 19.7552 93.8433 20.7828C100.921 25.4436 106.516 18.4109 99.7634 15.7026C96.844 14.5314 91.7928 12.6391 93.6976 7.79015C95.6023 2.94165 103.939 4.15428 104.219 6.48571C104.659 10.1423 102.139 5.41357 97.7851 6.77034C95.3188 7.53868 94.1875 11.0988 98.6736 12.9056C101.642 14.1011 105.156 15.0043 105.156 18.763ZM69.7897 14.0659V0.44741C69.7897 0.376902 69.8114 0.317805 69.8555 0.258703C69.8996 0.200119 69.9654 0.152936 70.0602 0.111979C70.1479 0.0705038 70.2795 0.0409544 70.4408 0.0233274C70.6087 0.00570034 70.8141 0 71.0774 0C71.3185 0 71.516 0.00570034 71.6846 0.0233274C71.8452 0.0409544 71.977 0.0705038 72.0651 0.111979C72.1599 0.152936 72.2258 0.200119 72.2698 0.258703C72.3134 0.317805 72.3357 0.376902 72.3357 0.44741V7.81762C72.4529 7.68801 72.5721 7.56099 72.6955 7.43757C74.4961 5.63703 76.9841 4.52341 79.7318 4.52341C82.4796 4.52341 84.9676 5.63703 86.7681 7.43757C88.5687 9.23814 89.6823 11.7261 89.6823 14.4739C89.6823 17.2216 88.5687 19.7097 86.7681 21.5102C84.9676 23.3107 82.4796 24.4244 79.7318 24.4244C76.9841 24.4244 74.4961 23.3107 72.6955 21.5102C70.8949 19.7097 69.7814 17.2216 69.7814 14.4739C69.7814 14.3375 69.784 14.2012 69.7897 14.0659ZM84.9349 9.27078C83.6035 7.93941 81.7636 7.11566 79.7318 7.11566C77.7 7.11566 75.8601 7.93941 74.5287 9.27078C73.1973 10.6022 72.3735 12.4421 72.3735 14.4739C72.3735 16.5056 73.1973 18.3457 74.5287 19.677C75.8601 21.0083 77.7 21.8321 79.7318 21.8321C81.7636 21.8321 83.6035 21.0083 84.9349 19.677C86.2663 18.3457 87.0901 16.5056 87.0901 14.4739C87.0901 12.4421 86.2663 10.6022 84.9349 9.27078ZM42.6575 1.77048C43.0059 1.77048 43.3231 1.90683 43.5528 2.1251C43.785 2.34699 43.9292 2.65339 43.9292 2.99142C43.9292 3.32944 43.785 3.63687 43.5528 3.85773C43.3231 4.07703 43.0059 4.21287 42.6575 4.21287C42.3091 4.21287 41.9918 4.07703 41.7621 3.85773C41.5298 3.63687 41.3857 3.32944 41.3857 2.99142C41.3857 2.65339 41.5298 2.34699 41.7621 2.1251C41.9918 1.90683 42.3091 1.77048 42.6575 1.77048ZM43.9349 26.7423C43.9349 28.125 43.8395 29.2371 43.642 30.0858C43.4517 30.9272 43.1448 31.6369 42.7202 32.2223C42.3034 32.8076 41.7471 33.2534 41.0741 33.5536C40.3939 33.8538 39.5598 34 38.5721 34C38.1994 34 37.8774 33.9777 37.599 33.9269C37.3211 33.8756 37.1018 33.817 36.9406 33.7657C36.7871 33.7071 36.6772 33.634 36.6114 33.5609C36.5455 33.4805 36.502 33.3924 36.4797 33.2975C36.4579 33.2099 36.4434 33.1145 36.4362 33.0341C36.4289 32.9465 36.4289 32.8439 36.4289 32.7267C36.4289 32.5442 36.4362 32.383 36.4579 32.244C36.4797 32.1123 36.5165 31.9952 36.5606 31.9148C36.6041 31.8272 36.6555 31.7614 36.7213 31.7173C36.7799 31.6732 36.8602 31.6515 36.9406 31.6515C37.0287 31.6515 37.2039 31.6732 37.4673 31.71C37.7385 31.7463 38.0599 31.7614 38.4477 31.7614C38.9744 31.7614 39.4281 31.6805 39.8014 31.527C40.1747 31.3663 40.4743 31.1102 40.7159 30.7442C40.9497 30.3859 41.1182 29.9105 41.2281 29.3252C41.3375 28.7471 41.3888 27.8839 41.3888 26.7423V6.37529C41.3888 6.28767 41.4106 6.21457 41.4547 6.14095C41.4987 6.06785 41.5646 6.00927 41.6595 5.95846C41.7471 5.90713 41.8788 5.87033 42.04 5.84856C42.208 5.82678 42.4133 5.81952 42.6767 5.81952C42.9177 5.81952 43.1153 5.82678 43.2837 5.84856C43.4445 5.87033 43.5761 5.90713 43.6643 5.95846C43.7591 6.00927 43.825 6.06785 43.8691 6.14095C43.9126 6.21457 43.9349 6.28767 43.9349 6.37529V26.7423ZM56.8623 4.52341C59.61 4.52341 62.098 5.63703 63.8986 7.43757C65.6991 9.23814 66.8128 11.7261 66.8128 14.4739C66.8128 17.2216 65.6991 19.7097 63.8986 21.5102C62.098 23.3107 59.61 24.4244 56.8623 24.4244C54.1145 24.4244 51.6265 23.3107 49.826 21.5102C48.0254 19.7097 46.9118 17.2216 46.9118 14.4739C46.9118 11.7261 48.0254 9.23814 49.826 7.43757C51.6265 5.63703 54.1145 4.52341 56.8623 4.52341ZM62.0653 9.27078C60.734 7.93941 58.894 7.11566 56.8623 7.11566C54.8305 7.11566 52.9905 7.93941 51.6592 9.27078C50.3278 10.6022 49.504 12.4421 49.504 14.4739C49.504 16.5056 50.3278 18.3457 51.6592 19.677C52.9905 21.0083 54.8305 21.8321 56.8623 21.8321C58.894 21.8321 60.734 21.0083 62.0653 19.677C63.3967 18.3457 64.2205 16.5056 64.2205 14.4739C64.2205 12.4421 63.3967 10.6022 62.0653 9.27078Z" fill="#264FBC"/>
<path d="M0 25.0142C0 28.6356 2.93573 31.5713 6.55714 31.5713C10.1785 31.5713 13.1143 28.6356 13.1143 25.0142C13.1143 21.3927 10.1785 18.457 6.55714 18.457C2.93573 18.457 0 21.3927 0 25.0142Z" fill="#264FBC"/>
<path d="M1.73705e-06 14.4284C1.73705e-06 15.3752 0.767513 16.1427 1.71429 16.1427H12C12.9468 16.1427 13.7143 15.3752 13.7143 14.4284V4.14274C13.7143 3.19597 12.9468 2.42846 12 2.42846L1.71429 2.42846C0.767513 2.42846 1.73705e-06 3.19597 1.73705e-06 4.14274L1.73705e-06 14.4284Z" fill="#5DD9C1"/>
<path d="M15.4286 29.857C15.4286 30.8038 16.1961 31.5713 17.1428 31.5713H27.4286C28.3753 31.5713 29.1428 30.8038 29.1428 29.857V19.5713C29.1428 18.6245 28.3753 17.857 27.4286 17.857H17.1428C16.1961 17.857 15.4286 18.6245 15.4286 19.5713L15.4286 29.857Z" fill="#5DD9C1"/>
<path d="M16.0289 8.98534C16.0289 12.6067 18.9646 15.5425 22.586 15.5425C26.2074 15.5425 29.1431 12.6067 29.1431 8.98534C29.1431 5.36394 26.2074 2.4282 22.586 2.4282C18.9646 2.4282 16.0289 5.36394 16.0289 8.98534Z" fill="#264FBC"/>
</svg>
