<svg width="81" height="26" viewBox="0 0 81 26" fill="none" xmlns="http://www.w3.org/2000/svg">
<path d="M80.4131 14.3482C80.4131 20.1899 71.542 18.9692 70.9398 17.1293C70.8768 16.9378 70.5691 15.1069 71.7625 15.8928C77.1744 19.4569 81.4531 14.0789 76.2896 12.0078C74.0571 11.1122 70.1944 9.66519 71.651 5.95717C73.1076 2.24949 79.4826 3.1768 79.6967 4.95966C80.033 7.75585 78.1061 4.13979 74.7767 5.17732C72.8908 5.76488 72.0257 8.48734 75.4562 9.86898C77.726 10.7832 80.4131 11.4739 80.4131 14.3482ZM53.3685 10.7563V0.342137C53.3685 0.288219 53.3851 0.243027 53.4189 0.197831C53.4526 0.153032 53.5029 0.116951 53.5755 0.085631C53.6425 0.0539146 53.7432 0.0313181 53.8664 0.0178386C53.9949 0.00435908 54.1519 0 54.3533 0C54.5377 0 54.6887 0.00435908 54.8176 0.0178386C54.9405 0.0313181 55.0412 0.0539146 55.1086 0.085631C55.1811 0.116951 55.2314 0.153032 55.2651 0.197831C55.2985 0.243027 55.3155 0.288219 55.3155 0.342137V5.97818C55.4051 5.87907 55.4963 5.78193 55.5907 5.68755C56.9676 4.31067 58.8701 3.45908 60.9713 3.45908C63.0726 3.45908 64.9752 4.31067 66.352 5.68755C67.7289 7.06446 68.5805 8.96704 68.5805 11.0683C68.5805 13.1695 67.7289 15.0721 66.352 16.449C64.9752 17.8259 63.0726 18.6775 60.9713 18.6775C58.8701 18.6775 56.9676 17.8259 55.5907 16.449C54.2138 15.0721 53.3622 13.1695 53.3622 11.0683C53.3622 10.964 53.3642 10.8597 53.3685 10.7563ZM64.9502 7.08942C63.9321 6.07131 62.525 5.44138 60.9713 5.44138C59.4176 5.44138 58.0106 6.07131 56.9925 7.08942C55.9744 8.10753 55.3444 9.51454 55.3444 11.0683C55.3444 12.622 55.9744 14.029 56.9925 15.0471C58.0106 16.0652 59.4176 16.6952 60.9713 16.6952C62.525 16.6952 63.9321 16.0652 64.9502 15.0471C65.9683 14.029 66.5982 12.622 66.5982 11.0683C66.5982 9.51454 65.9683 8.10753 64.9502 7.08942ZM32.6205 1.35389C32.8869 1.35389 33.1295 1.45816 33.3051 1.62507C33.4827 1.79476 33.593 2.02906 33.593 2.28755C33.593 2.54604 33.4827 2.78114 33.3051 2.95003C33.1295 3.11773 32.8869 3.2216 32.6205 3.2216C32.354 3.2216 32.1114 3.11773 31.9358 2.95003C31.7581 2.78114 31.6479 2.54604 31.6479 2.28755C31.6479 2.02906 31.7581 1.79476 31.9358 1.62507C32.1114 1.45816 32.354 1.35389 32.6205 1.35389ZM33.5973 20.45C33.5973 21.5074 33.5244 22.3578 33.3733 23.0068C33.2278 23.6502 32.9931 24.1929 32.6684 24.6406C32.3497 25.0881 31.9243 25.4291 31.4097 25.6587C30.8895 25.8882 30.2516 26 29.4964 26C29.2113 26 28.9651 25.9829 28.7522 25.9441C28.5397 25.9048 28.372 25.8601 28.2487 25.8208C28.1314 25.776 28.0473 25.7201 27.997 25.6642C27.9466 25.6027 27.9133 25.5353 27.8963 25.4628C27.8796 25.3958 27.8685 25.3229 27.863 25.2614C27.8574 25.1944 27.8574 25.1159 27.8574 25.0263C27.8574 24.8867 27.863 24.7634 27.8796 24.6572C27.8963 24.5565 27.9244 24.4669 27.9581 24.4054C27.9914 24.3384 28.0307 24.2881 28.081 24.2544C28.1258 24.2207 28.1873 24.2041 28.2487 24.2041C28.3161 24.2041 28.4501 24.2207 28.6515 24.2488C28.8589 24.2766 29.1047 24.2881 29.4012 24.2881C29.804 24.2881 30.1509 24.2262 30.4364 24.1089C30.7218 23.986 30.951 23.7902 31.1357 23.5102C31.3145 23.2363 31.4434 22.8728 31.5274 22.4252C31.6111 21.9831 31.6503 21.323 31.6503 20.45V4.87522C31.6503 4.80822 31.667 4.75232 31.7007 4.69602C31.7344 4.64012 31.7847 4.59532 31.8573 4.55647C31.9243 4.51722 32.025 4.48908 32.1483 4.47243C32.2767 4.45578 32.4337 4.45022 32.6351 4.45022C32.8195 4.45022 32.9705 4.45578 33.0994 4.47243C33.2223 4.48908 33.323 4.51722 33.3904 4.55647C33.4629 4.59532 33.5133 4.64012 33.547 4.69602C33.5803 4.75232 33.5973 4.80822 33.5973 4.87522V20.45ZM43.4829 3.45908C45.5841 3.45908 47.4867 4.31067 48.8636 5.68755C50.2405 7.06446 51.0921 8.96704 51.0921 11.0683C51.0921 13.1695 50.2405 15.0721 48.8636 16.449C47.4867 17.8259 45.5841 18.6775 43.4829 18.6775C41.3817 18.6775 39.4791 17.8259 38.1022 16.449C36.7253 15.0721 35.8738 13.1695 35.8738 11.0683C35.8738 8.96704 36.7253 7.06446 38.1022 5.68755C39.4791 4.31067 41.3817 3.45908 43.4829 3.45908ZM47.4617 7.08942C46.4436 6.07131 45.0366 5.44138 43.4829 5.44138C41.9292 5.44138 40.5222 6.07131 39.5041 7.08942C38.486 8.10753 37.856 9.51454 37.856 11.0683C37.856 12.622 38.486 14.029 39.5041 15.0471C40.5222 16.0652 41.9292 16.6952 43.4829 16.6952C45.0366 16.6952 46.4436 16.0652 47.4617 15.0471C48.4798 14.029 49.1098 12.622 49.1098 11.0683C49.1098 9.51454 48.4798 8.10753 47.4617 7.08942Z" fill="#1C1C1C"/>
<path d="M0 18.618C0 21.1565 2.05786 23.2144 4.59635 23.2144C7.13485 23.2144 9.19271 21.1565 9.19271 18.618C9.19271 16.0795 7.13485 14.0216 4.59635 14.0216C2.05786 14.0216 0 16.0795 0 18.618Z" fill="#2D61E5"/>
<path d="M-1.21338e-05 11.1977C-1.21338e-05 11.8614 0.53799 12.3994 1.20165 12.3994H8.41161C9.07527 12.3994 9.61327 11.8614 9.61327 11.1977V3.98772C9.61327 3.32406 9.07527 2.78606 8.41161 2.78606H1.20165C0.53799 2.78606 -1.21338e-05 3.32406 -1.21338e-05 3.98772V11.1977Z" fill="#6BBD4E"/>
<path d="M10.8149 22.0127C10.8149 22.6764 11.3529 23.2144 12.0166 23.2144H19.2266C19.8902 23.2144 20.4282 22.6764 20.4282 22.0127V14.8027C20.4282 14.139 19.8902 13.601 19.2266 13.601H12.0166C11.3529 13.601 10.8149 14.139 10.8149 14.8027V22.0127Z" fill="#6BBD4E"/>
<path d="M11.2358 7.38215C11.2358 9.92065 13.2937 11.9785 15.8322 11.9785C18.3707 11.9785 20.4285 9.92065 20.4285 7.38215C20.4285 4.84365 18.3707 2.78578 15.8322 2.78578C13.2937 2.78578 11.2358 4.84365 11.2358 7.38215Z" fill="#2D61E5"/>
</svg>
